<svg xmlns="http://www.w3.org/2000/svg" width="23" height="23" viewBox="0 0 23 23">
    <g id="prefix__Group_635" data-name="Group 635" transform="translate(-185 -323)">
        <g id="prefix__Group_634" data-name="Group 634" transform="translate(0 -50)">
            <rect id="prefix__Rectangle_356" width="23" height="23" data-name="Rectangle 356" rx="5" transform="translate(185 373)" style="fill:#363636"/>
        </g>
        <path id="prefix__Subtraction_8" d="M-2972.15-12498.254h-1.294a.315.315 0 0 1-.323-.314v-.624h-.323v.624a.315.315 0 0 1-.323.314h-1.294a.319.319 0 0 1-.323-.314v-.624h-.644a.318.318 0 0 1-.323-.312v-1.25a.318.318 0 0 1 .323-.311h.644v-8.123h-.644a.319.319 0 0 1-.323-.314v-1.25a.318.318 0 0 1 .323-.311h.644v-.625a.319.319 0 0 1 .323-.313h1.294a.319.319 0 0 1 .323.313v.625h.323v-.625a.319.319 0 0 1 .323-.313h1.294a.319.319 0 0 1 .323.313v.682a3.53 3.53 0 0 1 2.315 1.474 3.327 3.327 0 0 1 .536 2.53 3.361 3.361 0 0 1-.983 1.806l-.015.015-.014.014-.046.044a3.417 3.417 0 0 1 1.118 2.5 3.476 3.476 0 0 1-2.911 3.379v.681a.315.315 0 0 1-.323.309zm-1.941-6.286v3.124h1.617a1.593 1.593 0 0 0 1.617-1.563 1.592 1.592 0 0 0-1.617-1.561zm0-4.647v3.124h1.617a1.593 1.593 0 0 0 1.617-1.563 1.592 1.592 0 0 0-1.617-1.561z" data-name="Subtraction 8" transform="translate(3168.999 12840)" style="fill:#fff"/>
    </g>
</svg>
