<svg xmlns="http://www.w3.org/2000/svg" width="23" height="23" viewBox="0 0 23 23">
    <defs>
        <style>
            .prefix__cls-2{fill:#fff}
        </style>
    </defs>
    <g id="prefix__Group_633" data-name="Group 633" transform="translate(-185 -373)">
        <rect id="prefix__Rectangle_356" width="23" height="23" data-name="Rectangle 356" rx="5" transform="translate(185 373)" style="fill:#363636"/>
        <g id="prefix__Group_630" data-name="Group 630" transform="translate(-248.816 -109.868)">
            <g id="prefix__Icon_ionic-logo-apple" data-name="Icon ionic-logo-apple" transform="translate(439.816 486.868)">
                <path id="prefix__Path_710" d="M15.5 10.821c-1.238 0-1.761.608-2.623.608-.884 0-1.558-.6-2.63-.6a3.573 3.573 0 0 0-2.88 1.783c-1 1.584-.829 4.567.788 7.109.578.91 1.352 1.93 2.365 1.941h.018c.88 0 1.142-.593 2.354-.6h.018c1.193 0 1.433.6 2.309.6h.018c1.013-.011 1.827-1.142 2.405-2.048a10.075 10.075 0 0 0 .891-1.716 3.152 3.152 0 0 1-.4-5.632 3.464 3.464 0 0 0-2.633-1.445z" class="prefix__cls-2" data-name="Path 710" transform="translate(-6.748 -7.51)"/>
                <path id="prefix__Path_711" d="M20.375 4.5a3.221 3.221 0 0 0-2.1 1.164 2.93 2.93 0 0 0-.685 2.24h.059a2.734 2.734 0 0 0 2.055-1.109 3.137 3.137 0 0 0 .67-2.295z" class="prefix__cls-2" data-name="Path 711" transform="translate(-11.895 -4.5)"/>
            </g>
        </g>
    </g>
</svg>
