<svg width="202" height="53" viewBox="0 0 202 53" fill="none" xmlns="http://www.w3.org/2000/svg"><mask id="a" maskUnits="userSpaceOnUse" x="84.298" y="1" width="118" height="52" fill="#000"><path fill="#fff" d="M84.298 1h118v52h-118z"/><path d="M85.298 36.546c0-1.987.324-3.791.973-5.413.689-1.662 1.622-3.081 2.797-4.257a12.483 12.483 0 014.136-2.737c1.622-.649 3.366-.973 5.23-.973 1.258 0 2.373.162 3.346.486 1.014.284 1.865.649 2.555 1.095.729.405 1.338.872 1.824 1.399.487.527.852.993 1.095 1.399V2h5.23v47.258h-5.23v-1.886c0-.243.02-.507.061-.79.04-.325.061-.588.061-.791-.406.487-.892.973-1.46 1.46a11.73 11.73 0 01-1.886 1.277c-.729.405-1.581.73-2.554.973-.933.243-2.007.365-3.224.365-2.027 0-3.852-.345-5.473-1.034-1.582-.73-2.94-1.683-4.075-2.859-1.095-1.216-1.947-2.635-2.555-4.257-.568-1.622-.851-3.345-.851-5.17zm5.23-.06c0 1.175.203 2.27.608 3.284a8.49 8.49 0 001.764 2.615 8.49 8.49 0 002.615 1.764c1.014.405 2.13.608 3.346.608 1.216 0 2.331-.203 3.345-.608 1.054-.446 1.946-1.034 2.676-1.764a8.068 8.068 0 001.764-2.615c.405-1.014.608-2.109.608-3.285 0-1.175-.203-2.25-.608-3.223a7.289 7.289 0 00-1.764-2.615c-.73-.73-1.622-1.298-2.676-1.703-1.014-.446-2.129-.67-3.345-.67-1.217 0-2.332.224-3.346.67a7.687 7.687 0 00-2.615 1.703 8.49 8.49 0 00-1.764 2.615c-.405.973-.608 2.047-.608 3.223zm43.248-6.63c-1.136 0-2.231.162-3.285.486a8.809 8.809 0 00-2.858 1.338 6.75 6.75 0 00-1.947 2.312c-.486.892-.729 1.926-.729 3.102v12.164h-5.17V23.835h4.561c.081 1.257.142 2.412.183 3.466l.243 3.042a11.535 11.535 0 012.068-2.98 14.153 14.153 0 012.737-2.251c.973-.608 1.926-1.075 2.858-1.399.933-.365 1.764-.547 2.494-.547l-1.155 6.69zm4.229-15.753c0-.973.345-1.784 1.034-2.432.73-.65 1.501-.974 2.312-.974.811 0 1.561.325 2.25.974.689.648 1.034 1.46 1.034 2.432 0 .973-.345 1.784-1.034 2.433-.689.608-1.439.912-2.25.912-.811 0-1.582-.304-2.312-.912-.689-.649-1.034-1.46-1.034-2.433zm5.839 35.155h-5.17V23.835h5.17v25.423zm17.217 1.52a380.26 380.26 0 01-6.751-13.441 410.46 410.46 0 00-6.568-13.502h5.656c1.46 2.878 2.615 5.23 3.467 7.055a113.419 113.419 0 012.128 4.561c.527 1.217.933 2.25 1.217 3.102.284.811.567 1.642.851 2.494.325-.852.629-1.683.913-2.494a201.9 201.9 0 011.216-3.102 184.372 184.372 0 012.068-4.561 571.579 571.579 0 013.527-7.055h5.657a693.117 693.117 0 00-6.69 13.502c-2.149 4.42-4.38 8.9-6.691 13.441zm37.81-4.5c-1.216 1.094-2.696 1.966-4.44 2.615a15.227 15.227 0 01-5.352.973 13.68 13.68 0 01-5.291-1.034 14.819 14.819 0 01-4.258-2.859 14.214 14.214 0 01-2.919-4.257 13.085 13.085 0 01-1.034-5.17c0-1.824.345-3.548 1.034-5.17a14.212 14.212 0 012.919-4.257 13.539 13.539 0 014.197-2.859 12.453 12.453 0 015.17-1.094c2.879 0 5.372.871 7.481 2.615 2.149 1.703 3.689 3.953 4.622 6.751-1.257.446-2.696.993-4.318 1.642a338.75 338.75 0 00-5.048 2.068l-5.231 2.068a347.99 347.99 0 01-4.866 1.885 8.468 8.468 0 002.981 3.346c1.338.81 2.818 1.216 4.44 1.216a9.402 9.402 0 003.284-.608c1.135-.406 2.048-.953 2.737-1.642l3.892 3.77zm-4.379-14.962c-.486-1.014-1.257-1.764-2.311-2.25-1.054-.528-2.129-.791-3.223-.791a8.068 8.068 0 00-3.285.669 8.18 8.18 0 00-2.554 1.824 8.707 8.707 0 00-1.764 2.555 7.672 7.672 0 00-.608 2.98v.426c.04.08.061.142.061.182 1.054-.405 2.189-.851 3.406-1.338a235.26 235.26 0 013.71-1.52 110.674 110.674 0 013.527-1.46c1.136-.487 2.149-.913 3.041-1.277z"/></mask><path d="M85.298 36.546c0-1.987.324-3.791.973-5.413.689-1.662 1.622-3.081 2.797-4.257a12.483 12.483 0 014.136-2.737c1.622-.649 3.366-.973 5.23-.973 1.258 0 2.373.162 3.346.486 1.014.284 1.865.649 2.555 1.095.729.405 1.338.872 1.824 1.399.487.527.852.993 1.095 1.399V2h5.23v47.258h-5.23v-1.886c0-.243.02-.507.061-.79.04-.325.061-.588.061-.791-.406.487-.892.973-1.46 1.46a11.73 11.73 0 01-1.886 1.277c-.729.405-1.581.73-2.554.973-.933.243-2.007.365-3.224.365-2.027 0-3.852-.345-5.473-1.034-1.582-.73-2.94-1.683-4.075-2.859-1.095-1.216-1.947-2.635-2.555-4.257-.568-1.622-.851-3.345-.851-5.17zm5.23-.06c0 1.175.203 2.27.608 3.284a8.49 8.49 0 001.764 2.615 8.49 8.49 0 002.615 1.764c1.014.405 2.13.608 3.346.608 1.216 0 2.331-.203 3.345-.608 1.054-.446 1.946-1.034 2.676-1.764a8.068 8.068 0 001.764-2.615c.405-1.014.608-2.109.608-3.285 0-1.175-.203-2.25-.608-3.223a7.289 7.289 0 00-1.764-2.615c-.73-.73-1.622-1.298-2.676-1.703-1.014-.446-2.129-.67-3.345-.67-1.217 0-2.332.224-3.346.67a7.687 7.687 0 00-2.615 1.703 8.49 8.49 0 00-1.764 2.615c-.405.973-.608 2.047-.608 3.223zm43.248-6.63c-1.136 0-2.231.162-3.285.486a8.809 8.809 0 00-2.858 1.338 6.75 6.75 0 00-1.947 2.312c-.486.892-.729 1.926-.729 3.102v12.164h-5.17V23.835h4.561c.081 1.257.142 2.412.183 3.466l.243 3.042a11.535 11.535 0 012.068-2.98 14.153 14.153 0 012.737-2.251c.973-.608 1.926-1.075 2.858-1.399.933-.365 1.764-.547 2.494-.547l-1.155 6.69zm4.229-15.753c0-.973.345-1.784 1.034-2.432.73-.65 1.501-.974 2.312-.974.811 0 1.561.325 2.25.974.689.648 1.034 1.46 1.034 2.432 0 .973-.345 1.784-1.034 2.433-.689.608-1.439.912-2.25.912-.811 0-1.582-.304-2.312-.912-.689-.649-1.034-1.46-1.034-2.433zm5.839 35.155h-5.17V23.835h5.17v25.423zm17.217 1.52a380.26 380.26 0 01-6.751-13.441 410.46 410.46 0 00-6.568-13.502h5.656c1.46 2.878 2.615 5.23 3.467 7.055a113.419 113.419 0 012.128 4.561c.527 1.217.933 2.25 1.217 3.102.284.811.567 1.642.851 2.494.325-.852.629-1.683.913-2.494a201.9 201.9 0 011.216-3.102 184.372 184.372 0 012.068-4.561 571.579 571.579 0 013.527-7.055h5.657a693.117 693.117 0 00-6.69 13.502c-2.149 4.42-4.38 8.9-6.691 13.441zm37.81-4.5c-1.216 1.094-2.696 1.966-4.44 2.615a15.227 15.227 0 01-5.352.973 13.68 13.68 0 01-5.291-1.034 14.819 14.819 0 01-4.258-2.859 14.214 14.214 0 01-2.919-4.257 13.085 13.085 0 01-1.034-5.17c0-1.824.345-3.548 1.034-5.17a14.212 14.212 0 012.919-4.257 13.539 13.539 0 014.197-2.859 12.453 12.453 0 015.17-1.094c2.879 0 5.372.871 7.481 2.615 2.149 1.703 3.689 3.953 4.622 6.751-1.257.446-2.696.993-4.318 1.642a338.75 338.75 0 00-5.048 2.068l-5.231 2.068a347.99 347.99 0 01-4.866 1.885 8.468 8.468 0 002.981 3.346c1.338.81 2.818 1.216 4.44 1.216a9.402 9.402 0 003.284-.608c1.135-.406 2.048-.953 2.737-1.642l3.892 3.77zm-4.379-14.962c-.486-1.014-1.257-1.764-2.311-2.25-1.054-.528-2.129-.791-3.223-.791a8.068 8.068 0 00-3.285.669 8.18 8.18 0 00-2.554 1.824 8.707 8.707 0 00-1.764 2.555 7.672 7.672 0 00-.608 2.98v.426c.04.08.061.142.061.182 1.054-.405 2.189-.851 3.406-1.338a235.26 235.26 0 013.71-1.52 110.674 110.674 0 013.527-1.46c1.136-.487 2.149-.913 3.041-1.277z" fill="#FC9845"/><path d="M85.298 36.546c0-1.987.324-3.791.973-5.413.689-1.662 1.622-3.081 2.797-4.257a12.483 12.483 0 014.136-2.737c1.622-.649 3.366-.973 5.23-.973 1.258 0 2.373.162 3.346.486 1.014.284 1.865.649 2.555 1.095.729.405 1.338.872 1.824 1.399.487.527.852.993 1.095 1.399V2h5.23v47.258h-5.23v-1.886c0-.243.02-.507.061-.79.04-.325.061-.588.061-.791-.406.487-.892.973-1.46 1.46a11.73 11.73 0 01-1.886 1.277c-.729.405-1.581.73-2.554.973-.933.243-2.007.365-3.224.365-2.027 0-3.852-.345-5.473-1.034-1.582-.73-2.94-1.683-4.075-2.859-1.095-1.216-1.947-2.635-2.555-4.257-.568-1.622-.851-3.345-.851-5.17zm5.23-.06c0 1.175.203 2.27.608 3.284a8.49 8.49 0 001.764 2.615 8.49 8.49 0 002.615 1.764c1.014.405 2.13.608 3.346.608 1.216 0 2.331-.203 3.345-.608 1.054-.446 1.946-1.034 2.676-1.764a8.068 8.068 0 001.764-2.615c.405-1.014.608-2.109.608-3.285 0-1.175-.203-2.25-.608-3.223a7.289 7.289 0 00-1.764-2.615c-.73-.73-1.622-1.298-2.676-1.703-1.014-.446-2.129-.67-3.345-.67-1.217 0-2.332.224-3.346.67a7.687 7.687 0 00-2.615 1.703 8.49 8.49 0 00-1.764 2.615c-.405.973-.608 2.047-.608 3.223zm43.248-6.63c-1.136 0-2.231.162-3.285.486a8.809 8.809 0 00-2.858 1.338 6.75 6.75 0 00-1.947 2.312c-.486.892-.729 1.926-.729 3.102v12.164h-5.17V23.835h4.561c.081 1.257.142 2.412.183 3.466l.243 3.042a11.535 11.535 0 012.068-2.98 14.153 14.153 0 012.737-2.251c.973-.608 1.926-1.075 2.858-1.399.933-.365 1.764-.547 2.494-.547l-1.155 6.69zm4.229-15.753c0-.973.345-1.784 1.034-2.432.73-.65 1.501-.974 2.312-.974.811 0 1.561.325 2.25.974.689.648 1.034 1.46 1.034 2.432 0 .973-.345 1.784-1.034 2.433-.689.608-1.439.912-2.25.912-.811 0-1.582-.304-2.312-.912-.689-.649-1.034-1.46-1.034-2.433zm5.839 35.155h-5.17V23.835h5.17v25.423zm17.217 1.52a380.26 380.26 0 01-6.751-13.441 410.46 410.46 0 00-6.568-13.502h5.656c1.46 2.878 2.615 5.23 3.467 7.055a113.419 113.419 0 012.128 4.561c.527 1.217.933 2.25 1.217 3.102.284.811.567 1.642.851 2.494.325-.852.629-1.683.913-2.494a201.9 201.9 0 011.216-3.102 184.372 184.372 0 012.068-4.561 571.579 571.579 0 013.527-7.055h5.657a693.117 693.117 0 00-6.69 13.502c-2.149 4.42-4.38 8.9-6.691 13.441zm37.81-4.5c-1.216 1.094-2.696 1.966-4.44 2.615a15.227 15.227 0 01-5.352.973 13.68 13.68 0 01-5.291-1.034 14.819 14.819 0 01-4.258-2.859 14.214 14.214 0 01-2.919-4.257 13.085 13.085 0 01-1.034-5.17c0-1.824.345-3.548 1.034-5.17a14.212 14.212 0 012.919-4.257 13.539 13.539 0 014.197-2.859 12.453 12.453 0 015.17-1.094c2.879 0 5.372.871 7.481 2.615 2.149 1.703 3.689 3.953 4.622 6.751-1.257.446-2.696.993-4.318 1.642a338.75 338.75 0 00-5.048 2.068l-5.231 2.068a347.99 347.99 0 01-4.866 1.885 8.468 8.468 0 002.981 3.346c1.338.81 2.818 1.216 4.44 1.216a9.402 9.402 0 003.284-.608c1.135-.406 2.048-.953 2.737-1.642l3.892 3.77zm-4.379-14.962c-.486-1.014-1.257-1.764-2.311-2.25-1.054-.528-2.129-.791-3.223-.791a8.068 8.068 0 00-3.285.669 8.18 8.18 0 00-2.554 1.824 8.707 8.707 0 00-1.764 2.555 7.672 7.672 0 00-.608 2.98v.426c.04.08.061.142.061.182 1.054-.405 2.189-.851 3.406-1.338a235.26 235.26 0 013.71-1.52 110.674 110.674 0 013.527-1.46c1.136-.487 2.149-.913 3.041-1.277z" stroke="#FC9845" stroke-width="1.2" mask="url(#a)"/><path d="M59.509 16.168a9.46 9.46 0 00-.8.826 19.68 19.68 0 00-.096-1.058c-.04-.723-.06-1.322-.06-1.799v-.3h-5.648v38.248h5.83V37.493c0-.102-.004-.203-.014-.305.215.24.46.479.735.715h0l.01.008c.585.46 1.27.894 2.053 1.307h0l.011.005c.79.375 1.641.665 2.551.872.957.25 1.954.374 2.99.374 1.98 0 3.803-.33 5.464-.995l.004-.001c1.696-.704 3.149-1.657 4.355-2.863 1.206-1.206 2.14-2.64 2.803-4.297.664-1.661.995-3.463.995-5.403 0-2.099-.33-4-.993-5.702-.622-1.698-1.536-3.135-2.745-4.303-1.166-1.207-2.58-2.12-4.238-2.743-1.621-.664-3.423-.994-5.4-.994-1.161 0-2.225.145-3.19.439-.952.29-1.824.663-2.615 1.12-.748.417-1.416.896-2.002 1.44zm0 0s0 0 0 0l.203.22-.203-.22s0 0 0 0zM5.562 2.646h-.3v11.252H.7v5.222h4.562v20.74h5.77V19.12h6.811v-5.221h-6.812V2.646h-5.47zm30.27 17.813h.253l.043-.25 1.156-6.69.06-.35h-.356c-.777 0-1.644.193-2.597.565-.955.333-1.927.81-2.914 1.426a14.465 14.465 0 00-2.795 2.298 11.929 11.929 0 00-1.633 2.147l-.04-.504-.122-1.515c-.04-1.055-.101-2.211-.182-3.468l-.018-.28h-5.143V39.86h5.77V27.396c0-1.133.234-2.117.693-2.958h0l.002-.005a6.445 6.445 0 011.858-2.208 8.517 8.517 0 012.76-1.29h0l.01-.003a10.805 10.805 0 013.196-.473zm5.065-18.71h0l-.006.006c-.752.707-1.128 1.598-1.128 2.651 0 1.053.377 1.944 1.128 2.651l.007.006.006.006c.774.645 1.61.982 2.504.982.894 0 1.712-.338 2.449-.987h0l.007-.007c.751-.707 1.128-1.598 1.128-2.651 0-1.053-.377-1.944-1.128-2.651C45.129 1.063 44.308.7 43.408.7c-.899 0-1.738.362-2.51 1.049zm5.004 38.111h.3V13.837h-5.77V39.86h5.47zm28.005-16.194v.004c.352.935.53 1.973.53 3.118 0 1.144-.178 2.203-.53 3.18a7.909 7.909 0 01-1.52 2.517 7.63 7.63 0 01-2.393 1.691c-.93.387-1.984.584-3.164.584a9.121 9.121 0 01-3.292-.586 8.187 8.187 0 01-2.518-1.699 8.193 8.193 0 01-1.699-2.519c-.389-.974-.585-2.03-.585-3.168 0-1.14.196-2.174.584-3.105.432-.981 1-1.82 1.7-2.522.7-.7 1.537-1.245 2.515-1.636h0l.005-.002a8.351 8.351 0 013.29-.646c1.179 0 2.23.216 3.159.642h0l.01.004c.936.39 1.731.934 2.39 1.632.66.698 1.165 1.533 1.517 2.511zm-15.47-5.819c.09-.135.187-.27.293-.405l-.304-.097c.007.172.01.34.01.502z" fill="#FC9845" stroke="#FC9845" stroke-width=".6"/></svg>