<svg id="admin" xmlns="http://www.w3.org/2000/svg" width="18.012" height="23.647" viewBox="0 0 18.012 23.647">
  <path id="Path_432" data-name="Path 432" d="M154.157,62.078a2.078,2.078,0,1,0-2.078,2.078A2.081,2.081,0,0,0,154.157,62.078Zm-2.078.693a.693.693,0,1,1,.693-.693A.694.694,0,0,1,152.078,62.771Zm0,0" transform="translate(-143.072 -57.229)" fill="#fd9846"/>
  <path id="Path_433" data-name="Path 433" d="M17.32,16.719h-.693V14.641a.693.693,0,0,0-.693-.693H9.7V12.431a6.235,6.235,0,1,0-1.386,0v1.517H2.078a.693.693,0,0,0-.693.693v2.078H.693A.693.693,0,0,0,0,17.412v2.771a.693.693,0,0,0,.693.693h.693v2.078a.693.693,0,0,0,1.386,0V20.876h.693a.693.693,0,0,0,.693-.693V17.412a.693.693,0,0,0-.693-.693H2.771V15.334H8.313v1.386H7.621a.693.693,0,0,0-.693.693v2.771a.693.693,0,0,0,.693.693h.693v2.078a.693.693,0,0,0,1.386,0V20.876h.693a.693.693,0,0,0,.693-.693V17.412a.693.693,0,0,0-.693-.693H9.7V15.334h5.542v1.386h-.693a.693.693,0,0,0-.693.693v2.771a.693.693,0,0,0,.693.693h.693v2.078a.693.693,0,0,0,1.386,0V20.876h.693a.693.693,0,0,0,.693-.693V17.412A.693.693,0,0,0,17.32,16.719Zm-10.392-6.1v-.224a2.078,2.078,0,1,1,4.157,0v.224a4.822,4.822,0,0,1-2.078.469h0A4.822,4.822,0,0,1,6.928,10.616ZM4.157,6.235A4.849,4.849,0,1,1,12.4,9.7a3.464,3.464,0,0,0-6.787,0A4.835,4.835,0,0,1,4.157,6.235ZM2.771,19.49H1.386V18.1H2.771Zm6.928,0H8.313V18.1H9.7Zm6.928,0H15.241V18.1h1.386Zm0,0" transform="translate(0)" fill="#fd9846"/>
</svg>
