<svg xmlns="http://www.w3.org/2000/svg" width="24.419" height="24.419" viewBox="0 0 24.419 24.419">
  <g id="gear" transform="translate(-0.248 0.21)">
    <path id="Path_421" data-name="Path 421" d="M85.164,76.9a7.8,7.8,0,1,0,7.8,7.8A7.813,7.813,0,0,0,85.164,76.9ZM81.236,90.418V87.682A1.67,1.67,0,0,1,82.7,86.029a3.249,3.249,0,0,0,4.923,0,1.671,1.671,0,0,1,1.467,1.654v2.736a6.931,6.931,0,0,1-7.856,0Zm8.729-.712V87.682a2.545,2.545,0,0,0-2.542-2.539.437.437,0,0,0-.352.178,2.366,2.366,0,0,1-3.814,0,.436.436,0,0,0-.351-.178,2.546,2.546,0,0,0-2.542,2.539v2.024a6.933,6.933,0,1,1,9.6,0Zm0,0" transform="translate(-72.706 -72.708)" fill="#fd9846" stroke="#fd9846" stroke-width="0.4"/>
    <path id="Path_422" data-name="Path 422" d="M23.051,13.224a10.957,10.957,0,0,0-.076-2.922l1.208-1.158a.436.436,0,0,0,.1-.49L22.906,5.509a.436.436,0,0,0-.432-.26L20.8,5.372a9.85,9.85,0,0,0-2.119-2.018l.049-1.67a.436.436,0,0,0-.279-.42L15.253.028a.437.437,0,0,0-.488.122L13.682,1.406a10.969,10.969,0,0,0-2.923.076L9.6.274a.436.436,0,0,0-.49-.1L5.968,1.552a.436.436,0,0,0-.26.432L5.83,3.656A9.854,9.854,0,0,0,3.812,5.774l-1.67-.049A.434.434,0,0,0,1.722,6L.487,9.2a.436.436,0,0,0,.122.488l1.256,1.083A10.949,10.949,0,0,0,1.94,13.7L.732,14.856a.436.436,0,0,0-.1.49L2.01,18.489a.436.436,0,0,0,.432.26l1.672-.123a9.854,9.854,0,0,0,2.119,2.018l-.049,1.67a.436.436,0,0,0,.279.42l3.2,1.235a.436.436,0,0,0,.488-.122l1.083-1.256a10.957,10.957,0,0,0,2.922-.075l1.158,1.208a.436.436,0,0,0,.49.1l3.144-1.375a.436.436,0,0,0,.26-.432l-.123-1.672A9.856,9.856,0,0,0,21.1,18.224l1.67.049a.437.437,0,0,0,.42-.279l1.235-3.2a.437.437,0,0,0-.122-.488Zm-.561,4.168-1.6-.047a.435.435,0,0,0-.376.194,8.993,8.993,0,0,1-2.142,2.249.436.436,0,0,0-.176.383l.118,1.6L15.733,22.9l-1.108-1.155a.436.436,0,0,0-.393-.127,10.1,10.1,0,0,1-3.121.081.436.436,0,0,0-.387.148l-1.034,1.2L7.065,22.032l.047-1.6a.437.437,0,0,0-.194-.376,8.995,8.995,0,0,1-2.249-2.142.437.437,0,0,0-.383-.176l-1.6.118L1.557,15.275l1.155-1.108a.436.436,0,0,0,.127-.393,10.094,10.094,0,0,1-.081-3.121.437.437,0,0,0-.148-.387l-1.2-1.034L2.425,6.607l1.6.047A.437.437,0,0,0,4.4,6.46,9,9,0,0,1,6.542,4.211a.436.436,0,0,0,.176-.383L6.6,2.227,9.182,1.1,10.29,2.254a.437.437,0,0,0,.393.127A10.087,10.087,0,0,1,13.805,2.3a.437.437,0,0,0,.387-.148l1.034-1.2,2.624,1.013-.047,1.6A.436.436,0,0,0,18,3.942a8.993,8.993,0,0,1,2.249,2.142.437.437,0,0,0,.383.176l1.6-.118,1.129,2.581L22.2,9.832a.436.436,0,0,0-.127.393,10.094,10.094,0,0,1,.081,3.121.436.436,0,0,0,.148.387l1.2,1.034Zm0,0" transform="translate(0 0)" fill="#fd9846" stroke="#fd9846" stroke-width="0.4"/>
    <path id="Path_423" data-name="Path 423" d="M172.374,125.059a2.772,2.772,0,1,0,2.772,2.772A2.772,2.772,0,0,0,172.374,125.059Zm0,4.671a1.9,1.9,0,1,1,1.9-1.9A1.9,1.9,0,0,1,172.374,129.73Zm0,0" transform="translate(-159.916 -118.237)" fill="#fd9846" stroke="#fd9846" stroke-width="0.4"/>
  </g>
</svg>
