<svg id="dashboard" xmlns="http://www.w3.org/2000/svg" width="24" height="24" viewBox="0 0 24 24">
  <path id="Path_381" data-name="Path 381" d="M70.25,70h-4.5A1.752,1.752,0,0,1,64,68.25v-2.5A1.752,1.752,0,0,1,65.75,64h4.5A1.752,1.752,0,0,1,72,65.75v2.5A1.752,1.752,0,0,1,70.25,70Zm-4.5-4.5a.25.25,0,0,0-.25.25v2.5a.25.25,0,0,0,.25.25h4.5a.25.25,0,0,0,.25-.25v-2.5a.25.25,0,0,0-.25-.25Zm0,0" transform="translate(-61 -61)" fill="#fd9846"/>
  <path id="Path_382" data-name="Path 382" d="M283.582,326h-4.5a1.752,1.752,0,0,1-1.75-1.75v-2.5a1.752,1.752,0,0,1,1.75-1.75h4.5a1.752,1.752,0,0,1,1.75,1.75v2.5A1.752,1.752,0,0,1,283.582,326Zm-4.5-4.5a.25.25,0,0,0-.25.25v2.5a.25.25,0,0,0,.25.25h4.5a.25.25,0,0,0,.25-.25v-2.5a.25.25,0,0,0-.25-.25Zm0,0" transform="translate(-264.332 -305)" fill="#fd9846"/>
  <path id="Path_383" data-name="Path 383" d="M283.582,74h-4.5a1.752,1.752,0,0,1-1.75-1.75v-6.5a1.752,1.752,0,0,1,1.75-1.75h4.5a1.752,1.752,0,0,1,1.75,1.75v6.5A1.752,1.752,0,0,1,283.582,74Zm-4.5-8.5a.25.25,0,0,0-.25.25v6.5a.25.25,0,0,0,.25.25h4.5a.25.25,0,0,0,.25-.25v-6.5a.25.25,0,0,0-.25-.25Zm0,0" transform="translate(-264.332 -61)" fill="#fd9846"/>
  <path id="Path_384" data-name="Path 384" d="M70.25,244.668h-4.5a1.752,1.752,0,0,1-1.75-1.75v-6.5a1.752,1.752,0,0,1,1.75-1.75h4.5a1.752,1.752,0,0,1,1.75,1.75v6.5A1.752,1.752,0,0,1,70.25,244.668Zm-4.5-8.5a.25.25,0,0,0-.25.25v6.5a.25.25,0,0,0,.25.25h4.5a.25.25,0,0,0,.25-.25v-6.5a.25.25,0,0,0-.25-.25Zm0,0" transform="translate(-61 -223.668)" fill="#fd9846"/>
  <path id="Path_385" data-name="Path 385" d="M21.25,24H2.75A2.752,2.752,0,0,1,0,21.25V2.75A2.752,2.752,0,0,1,2.75,0h18.5A2.752,2.752,0,0,1,24,2.75v18.5A2.752,2.752,0,0,1,21.25,24ZM2.75,1.5A1.252,1.252,0,0,0,1.5,2.75v18.5A1.252,1.252,0,0,0,2.75,22.5h18.5a1.252,1.252,0,0,0,1.25-1.25V2.75A1.252,1.252,0,0,0,21.25,1.5Zm0,0" fill="#fd9846"/>
</svg>
