<svg xmlns="http://www.w3.org/2000/svg" width="20.983" height="24" viewBox="0 0 20.983 24">
  <g id="blockchain" transform="translate(-3.6 -2.425)">
    <path id="Path_402" data-name="Path 402" d="M120.3,83.312l-9.753-5.63a.739.739,0,0,0-.739,0l-9.753,5.63a.739.739,0,0,0-.369.64V95.213a.739.739,0,0,0,.369.64l9.753,5.631a.738.738,0,0,0,.739,0l9.753-5.631a.739.739,0,0,0,.369-.64V83.952A.739.739,0,0,0,120.3,83.312Zm-10.122-4.137,8.275,4.777-8.275,4.778L101.9,83.952Zm.739,20.39V96.232a.739.739,0,1,0-1.477,0v3.332l-8.275-4.778V85.232l8.644,4.991a.738.738,0,0,0,.739,0l8.644-4.991v9.555Zm0,0" transform="translate(-96.088 -75.158)" fill="#fd9846"/>
    <path id="Path_403" data-name="Path 403" d="M232.4,275a.739.739,0,1,0,.522.216A.745.745,0,0,0,232.4,275Zm0,0" transform="translate(-218.313 -257.989)" fill="#fd9846"/>
  </g>
</svg>
