<svg xmlns="http://www.w3.org/2000/svg" width="39" height="39" viewBox="0 0 39 39">
  <g id="Group_320" data-name="Group 320" transform="translate(-1269 -232)">
    <circle id="Ellipse_97" data-name="Ellipse 97" cx="19.5" cy="19.5" r="19.5" transform="translate(1269 232)" fill="#f2f2f2"/>
    <g id="Icon_feather-trash-2" data-name="Icon feather-trash-2" transform="translate(1281 243)">
      <path id="Path_357" data-name="Path 357" d="M4.5,9H19.855" transform="translate(-4.5 -5.588)" fill="none" stroke="#383838" stroke-linecap="round" stroke-linejoin="round" stroke-width="1.2"/>
      <path id="Path_358" data-name="Path 358" d="M19.443,6.412V18.355a1.706,1.706,0,0,1-1.706,1.706H9.206A1.706,1.706,0,0,1,7.5,18.355V6.412m2.559,0V4.706A1.706,1.706,0,0,1,11.765,3h3.412a1.706,1.706,0,0,1,1.706,1.706V6.412" transform="translate(-5.794 -3)" fill="none" stroke="#383838" stroke-linecap="round" stroke-linejoin="round" stroke-width="1.2"/>
      <path id="Path_359" data-name="Path 359" d="M15,16.5v5.118" transform="translate(-9.029 -8.823)" fill="none" stroke="#383838" stroke-linecap="round" stroke-linejoin="round" stroke-width="1.2"/>
      <path id="Path_360" data-name="Path 360" d="M21,16.5v5.118" transform="translate(-11.617 -8.823)" fill="none" stroke="#383838" stroke-linecap="round" stroke-linejoin="round" stroke-width="1.2"/>
    </g>
  </g>
</svg>
